<?xml version="1.0" encoding="UTF-8"?>
<!DOCTYPE svg PUBLIC "-//W3C//DTD SVG 1.1//EN" "http://www.w3.org/Graphics/SVG/1.1/DTD/svg11.dtd">
<!-- Creator: CorelDRAW X7 -->
<svg xmlns="http://www.w3.org/2000/svg" xml:space="preserve" width="60.3672mm" height="11.5146mm" version="1.1" style="shape-rendering:geometricPrecision; text-rendering:geometricPrecision; image-rendering:optimizeQuality; fill-rule:evenodd; clip-rule:evenodd"
viewBox="0 0 6037 1151"
 xmlns:xlink="http://www.w3.org/1999/xlink">
 <defs>
  <style type="text/css">
   <![CDATA[
    .fil1 {fill:#FFA939}
    .fil2 {fill:#FEFEFE;fill-rule:nonzero}
    .fil0 {fill:#FFA939}
   ]]>
  </style>
 </defs>
 <g id="Camada_x0020_1">
  <metadata id="CorelCorpID_0Corel-Layer"/>
  <g id="_679358256">
   <path class="fil0" d="M573 9c126,0 242,41 336,111l-99 88c-68,-44 -149,-70 -237,-70 -87,0 -168,26 -236,69l-99 -88c94,-69 210,-110 335,-110zm-296 245c-87,80 -141,194 -141,322 0,153 79,288 199,366l-122 70c-126,-103 -206,-260 -206,-436 0,-158 65,-301 169,-403l101 81zm136 729c50,19 104,30 160,30 56,0 110,-10 159,-30l130 80c-85,50 -183,79 -289,79 -105,0 -204,-29 -289,-79l129 -80zm398 -40c120,-78 200,-213 200,-367 0,-127 -55,-242 -141,-322l102 -81c103,103 168,245 168,403 0,176 -81,333 -207,437l-122 -70z"/>
   <polygon class="fil1" points="574,658 977,330 882,241 574,491 256,237 143,313 "/>
   <polygon class="fil1" points="700,880 892,989 971,884 835,806 835,550 700,652 "/>
   <polygon class="fil1" points="445,880 245,994 133,909 311,806 311,550 446,652 "/>
  </g>
  <polygon class="fil2" points="1759,854 1622,393 1622,854 1511,854 1511,289 1717,289 1815,627 1919,289 2125,289 2125,854 1992,854 1992,393 1851,854 "/>
  <polygon id="1" class="fil2" points="2402,289 2402,854 2270,854 2270,289 "/>
  <polygon id="2" class="fil2" points="2681,742 2905,742 2905,854 2547,854 2547,289 2681,289 "/>
  <polygon id="3" class="fil2" points="3139,742 3363,742 3363,854 3005,854 3005,289 3139,289 "/>
  <polygon id="4" class="fil2" points="3866,397 3598,397 3598,513 3809,513 3809,618 3598,618 3598,742 3866,742 3866,854 3463,854 3463,289 3866,289 "/>
  <path id="5" class="fil2" d="M4411 289l0 565 -115 0 -218 -382c1,10 1,16 1,19 1,10 2,18 2,25l0 338 -103 0 0 -565 143 0 190 333c-2,-16 -2,-29 -2,-38l0 -295 102 0z"/>
  <polygon id="6" class="fil2" points="4689,289 4689,854 4557,854 4557,289 "/>
  <path id="7" class="fil2" d="M5278 289l0 352c0,57 -6,99 -19,126 -13,28 -37,51 -72,69 -35,17 -79,26 -134,26 -54,0 -97,-8 -129,-24 -32,-16 -56,-38 -72,-68 -16,-29 -24,-72 -24,-129l0 -352 143 0 0 352c0,30 2,53 7,67 5,14 16,26 31,34 15,9 34,13 56,13 25,0 45,-4 61,-13 15,-8 26,-19 31,-33 5,-13 8,-36 8,-68l0 -352 113 0z"/>
  <polygon id="8" class="fil2" points="5664,854 5526,393 5526,854 5415,854 5415,289 5621,289 5719,627 5823,289 6030,289 6030,854 5897,854 5897,393 5755,854 "/>
 </g>
</svg>
