<?xml version="1.0" encoding="UTF-8"?>
<!DOCTYPE svg PUBLIC "-//W3C//DTD SVG 1.1//EN" "http://www.w3.org/Graphics/SVG/1.1/DTD/svg11.dtd">
<!-- Creator: CorelDRAW X7 -->
<svg xmlns="http://www.w3.org/2000/svg" xml:space="preserve" width="9.1438mm" height="2.6246mm" version="1.1" style="shape-rendering:geometricPrecision; text-rendering:geometricPrecision; image-rendering:optimizeQuality; fill-rule:evenodd; clip-rule:evenodd"
viewBox="0 0 914 262"
 xmlns:xlink="http://www.w3.org/1999/xlink">
 <defs>
  <style type="text/css">
   <![CDATA[
    .fil1 {fill:#FEFEFE}
    .fil0 {fill:#FEFEFE;fill-rule:nonzero}
   ]]>
  </style>
 </defs>
 <g id="Camada_x0020_1">
  <metadata id="CorelCorpID_0Corel-Layer"/>
  <g id="_933851040">
   <path class="fil0" d="M332 217l0 -77 23 0 14 53 13 -53 24 0 0 77 -15 0 0 -60 -15 60 -15 0 -15 -60 0 60 -14 0zm89 0l0 -77 15 0 0 77 -15 0zm31 0l0 -76 15 0 0 63 39 0 0 13 -54 0zm65 0l0 -76 16 0 0 63 38 0 0 13 -54 0zm65 0l0 -77 57 0 0 13 -41 0 0 17 38 0 0 13 -38 0 0 21 43 0 0 13 -59 0zm72 0l0 -77 15 0 32 52 0 -52 14 0 0 77 -15 0 -32 -50 0 50 -14 0zm77 0l0 -77 16 0 0 77 -16 0zm30 -77l16 0 0 42c0,7 0,11 1,13 0,3 2,5 4,7 3,2 6,3 10,3 5,0 8,-1 10,-2 3,-2 4,-4 4,-7 1,-3 1,-7 1,-13l0 -43 16 0 0 41c0,9 -1,15 -2,19 -1,4 -2,7 -4,10 -3,3 -6,5 -9,6 -4,2 -9,3 -15,3 -7,0 -13,-1 -17,-3 -3,-2 -6,-4 -9,-7 -2,-2 -3,-5 -4,-8 -1,-5 -2,-11 -2,-20l0 -41zm78 77l0 -77 23 0 14 53 14 -53 23 0 0 77 -14 0 -1 -60 -15 60 -15 0 -15 -60 0 60 -14 0z"/>
   <path class="fil0" d="M332 104l0 -59 26 0c5,0 9,0 12,1 3,2 5,3 6,6 2,3 3,6 3,9 0,4 -1,8 -4,10 -3,3 -7,5 -13,6 2,1 4,2 5,3 2,2 4,4 6,8l11 16 -10 0 -8 -13c-2,-3 -4,-6 -5,-8 -2,-2 -3,-3 -4,-4 -2,0 -3,-1 -4,-1 -1,0 -2,-1 -4,-1l-9 0 0 27 -8 0zm8 -33l16 0c4,0 7,-1 9,-1 2,-1 3,-2 4,-4 1,-1 2,-3 2,-5 0,-3 -1,-5 -3,-7 -2,-2 -5,-3 -10,-3l-18 0 0 20zm52 33l0 -59 8 0 0 59 -8 0zm19 -19l8 -1c0,3 1,5 2,7 1,2 3,4 6,5 3,1 6,2 9,2 3,0 5,-1 8,-2 2,-1 4,-2 5,-3 1,-2 1,-4 1,-5 0,-2 0,-4 -1,-5 -1,-2 -3,-3 -5,-4 -2,0 -6,-1 -11,-2 -5,-2 -9,-3 -11,-4 -3,-2 -5,-3 -6,-6 -2,-2 -3,-4 -3,-7 0,-3 1,-6 3,-8 2,-3 4,-5 7,-6 4,-1 7,-2 11,-2 4,0 8,1 12,2 3,1 5,3 7,6 2,3 3,6 3,9l-7 1c-1,-4 -2,-6 -4,-8 -3,-2 -6,-3 -11,-3 -4,0 -8,1 -10,2 -2,2 -3,4 -3,7 0,2 1,3 2,5 2,1 6,3 12,4 6,1 11,3 13,4 3,1 6,3 7,6 2,2 3,5 3,8 0,3 -1,6 -3,9 -2,3 -4,5 -8,6 -3,2 -7,3 -11,3 -5,0 -10,-1 -13,-3 -4,-1 -7,-4 -9,-7 -2,-3 -3,-6 -3,-10zm59 19l0 -59 8 0 0 59 -8 0zm21 0l0 -59 8 0 31 46 0 -46 7 0 0 59 -8 0 -30 -46 0 46 -8 0zm87 -23l0 -7 25 0 0 21c-4,3 -8,6 -12,7 -4,2 -8,3 -13,3 -5,0 -11,-2 -15,-4 -5,-3 -9,-6 -11,-11 -2,-5 -4,-10 -4,-15 0,-6 2,-12 4,-16 2,-5 6,-9 10,-11 5,-3 10,-4 16,-4 4,0 8,1 11,2 4,1 6,3 8,6 2,2 4,5 5,9l-7 2c-1,-3 -2,-5 -4,-7 -1,-2 -3,-3 -5,-4 -3,-1 -5,-1 -8,-1 -4,0 -7,0 -9,1 -3,1 -5,3 -7,4 -1,2 -2,4 -3,6 -2,4 -3,8 -3,12 0,5 1,10 3,13 2,4 5,6 8,8 3,2 7,3 11,3 3,0 7,-1 10,-2 3,-2 5,-3 7,-4l0 -11 -17 0zm59 23l0 -59 40 0 0 7 -32 0 0 18 28 0 0 7 -28 0 0 27 -8 0zm47 -29c0,-10 3,-17 8,-23 6,-5 12,-8 21,-8 5,0 10,1 14,4 5,2 8,6 10,11 2,4 4,9 4,15 0,6 -2,12 -4,16 -2,5 -6,9 -10,11 -5,2 -9,4 -14,4 -6,0 -11,-2 -15,-4 -5,-3 -8,-7 -10,-11 -2,-5 -4,-10 -4,-15zm9 0c0,7 1,13 5,17 4,4 9,6 15,6 5,0 10,-2 14,-6 4,-4 6,-10 6,-18 0,-4 -1,-9 -3,-12 -1,-4 -4,-6 -7,-8 -3,-2 -7,-3 -10,-3 -6,0 -11,2 -15,5 -4,4 -5,10 -5,19zm58 29l0 -59 26 0c5,0 9,0 12,1 2,2 5,3 6,6 2,3 3,6 3,9 0,4 -2,8 -4,10 -3,3 -7,5 -13,6 2,1 4,2 5,3 2,2 4,4 6,8l10 16 -9 0 -8 -13c-2,-3 -4,-6 -6,-8 -1,-2 -2,-3 -4,-4 -1,0 -2,-1 -3,-1 -1,0 -2,-1 -4,-1l-9 0 0 27 -8 0zm8 -33l16 0c4,0 6,-1 8,-1 2,-1 4,-2 5,-4 1,-1 2,-3 2,-5 0,-3 -1,-5 -3,-7 -2,-2 -6,-3 -10,-3l-18 0 0 20zm93 12l7 2c-1,6 -4,11 -8,15 -5,3 -10,5 -16,5 -6,0 -11,-2 -15,-4 -4,-3 -7,-7 -9,-12 -2,-4 -3,-10 -3,-15 0,-6 1,-12 3,-16 2,-5 6,-8 10,-11 4,-2 9,-3 14,-3 6,0 11,1 15,4 4,3 7,8 8,13l-7 2c-2,-4 -4,-8 -6,-10 -3,-1 -6,-2 -10,-2 -4,0 -8,1 -11,3 -3,2 -5,5 -7,8 -1,4 -1,8 -1,12 0,5 0,9 2,13 1,4 3,6 6,8 4,2 7,3 10,3 5,0 8,-1 11,-4 3,-2 5,-6 7,-11zm17 21l0 -59 42 0 0 7 -34 0 0 18 32 0 0 7 -32 0 0 20 36 0 0 7 -44 0z"/>
  </g>
  <g id="_374279024">
   <path class="fil1" d="M134 -1c29,0 56,10 78,26l-23 21c-16,-11 -35,-17 -55,-17 -21,0 -40,6 -55,16l-23 -20c21,-16 48,-26 78,-26zm-69 57c-21,19 -33,46 -33,75 0,36 18,67 46,86l-29 16c-29,-24 -48,-61 -48,-102 0,-36 16,-70 40,-93l24 18 0 0zm31 170c12,5 24,7 38,7 13,0 25,-2 37,-7l30 19c-20,11 -43,18 -67,18 -25,0 -48,-7 -68,-18l30 -19 0 0zm93 -9c28,-18 46,-50 46,-86 0,-29 -12,-56 -33,-75l24 -18c24,23 39,57 39,93 0,41 -18,78 -48,102l-28 -16 0 0z"/>
   <polygon class="fil1" points="134,150 228,74 205,53 134,112 60,52 33,70 "/>
   <polygon class="fil1" points="163,202 208,228 226,203 195,185 195,125 163,149 "/>
   <polygon class="fil1" points="104,202 57,229 31,209 72,185 72,125 104,149 "/>
  </g>
 </g>
</svg>
